<svg xmlns="http://www.w3.org/2000/svg" width="561.395" height="187.545"><g fill="#425224" data-name="Grupo 225"><path d="M0 176.525a4.62 4.62 0 1 1 4.62 4.62 4.62 4.62 0 0 1-4.62-4.62" data-name="Trazado 181"/><path d="M499.443 176.525a4.62 4.62 0 1 1 4.62 4.62 4.62 4.62 0 0 1-4.62-4.62" data-name="Trazado 182"/><path d="M56.488 168.239v16.338h4.927v2.722h-7.923v-19.06Z" data-name="Trazado 183"/><path d="m74.841 187.299-.518-3.458h-3.676l-.517 3.458h-2.751l3.05-19.06h4.385l3.05 19.06Zm-.927-6.045-1.442-9.638-1.444 9.638Z" data-name="Trazado 184"/><path d="M103.052 182.725c0 3.049-1.525 4.792-4.466 4.792s-4.465-1.743-4.465-4.792v-9.91c0-3.05 1.525-4.792 4.465-4.792s4.466 1.742 4.466 4.792v1.85h-2.831v-2.041c0-1.363-.6-1.879-1.552-1.879s-1.552.516-1.552 1.879v10.292c0 1.361.6 1.851 1.552 1.851s1.552-.49 1.552-1.851v-2.724h2.831Z" data-name="Trazado 185"/><path d="M114.625 168.022c2.939 0 4.547 1.743 4.547 4.793v9.91c0 3.049-1.608 4.792-4.547 4.792s-4.547-1.743-4.547-4.792v-9.91c0-3.05 1.605-4.793 4.547-4.793m0 16.771c.952 0 1.552-.517 1.552-1.878v-10.291c0-1.363-.6-1.88-1.552-1.88s-1.552.517-1.552 1.88v10.291c0 1.361.6 1.878 1.552 1.878" data-name="Trazado 186"/><path d="M135.237 182.725c0 3.049-1.525 4.792-4.466 4.792s-4.465-1.743-4.465-4.792v-9.91c0-3.05 1.525-4.792 4.465-4.792s4.466 1.742 4.466 4.792v1.85h-2.832v-2.041c0-1.363-.6-1.879-1.552-1.879s-1.551.516-1.551 1.879v10.292c0 1.361.6 1.851 1.551 1.851s1.552-.49 1.552-1.851v-2.724h2.832Z" data-name="Trazado 187"/><path d="M142.508 168.239h2.996v19.06h-2.996z" data-name="Rectángulo 148"/><path d="M155.796 187.299h-2.7v-19.06h3.757l3.076 11.409v-11.409h2.669v19.06h-3.072l-3.73-13.8Z" data-name="Trazado 188"/><path d="m176.872 187.299-.519-3.458h-3.675l-.517 3.458h-2.751l3.05-19.06h4.385l3.05 19.06Zm-.927-6.045-1.442-9.638-1.444 9.638Z" data-name="Trazado 189"/><path d="M204.785 168.239v2.723h-3.132v16.337h-3v-16.337h-3.131v-2.723Z" data-name="Trazado 190"/><path d="M213.466 167.232h-2.01l1.851-3.022h2.941Zm1.062 20.067h-3v-19.06h3Z" data-name="Trazado 191"/><path d="M231.033 172.95v2.479c0 3.049-1.47 4.709-4.466 4.709h-1.415v7.161h-2.995v-19.06h4.41c3 0 4.466 1.661 4.466 4.711m-5.881 4.466h1.414c.954 0 1.471-.436 1.471-1.8v-2.858c0-1.361-.517-1.8-1.471-1.8h-1.415Z" data-name="Trazado 192"/><path d="M238.006 168.239h2.995v19.06h-2.995z" data-name="Rectángulo 149"/><path d="M257.31 182.725c0 3.049-1.526 4.792-4.464 4.792s-4.468-1.743-4.468-4.792v-9.91c0-3.05 1.526-4.792 4.468-4.792s4.464 1.742 4.464 4.792v1.85h-2.833v-2.041c0-1.363-.6-1.879-1.552-1.879s-1.552.516-1.552 1.879v10.292c0 1.361.6 1.851 1.552 1.851s1.552-.49 1.552-1.851v-2.724h2.833Z" data-name="Trazado 193"/><path d="m271.251 187.299-.515-3.458h-3.67l-.519 3.458h-2.75l3.049-19.06h4.385l3.05 19.06Zm-.925-6.045-1.444-9.638-1.44 9.638Z" data-name="Trazado 194"/><path d="M295.514 168.239c3 0 4.469 1.661 4.469 4.711v9.638c0 3.049-1.473 4.711-4.469 4.711h-4.734v-19.06Zm-1.742 16.338h1.689c.954 0 1.526-.491 1.526-1.852v-9.91c0-1.363-.572-1.853-1.526-1.853h-1.689Z" data-name="Trazado 195"/><path d="M314.438 176.268v2.723h-4.112v5.583h5.174v2.722h-8.166v-19.06h8.166v2.723h-5.174v5.309Z" data-name="Trazado 196"/><path d="M335.461 168.239v16.338h4.929v2.722h-7.924v-19.06Z" data-name="Trazado 197"/><path d="m353.815 187.299-.514-3.458h-3.676l-.519 3.458h-2.75l3.049-19.06h4.385l3.05 19.06Zm-.925-6.045-1.444-9.638-1.44 9.638Z" data-name="Trazado 198"/><path d="m380.012 187.299-.515-3.458h-3.676l-.518 3.458h-2.751l3.05-19.06h4.385l3.05 19.06Zm-.925-6.045-1.444-9.638-1.44 9.638Z" data-name="Trazado 199"/><path d="M398.827 172.624v.68c0 1.96-.6 3.212-1.932 3.838 1.6.627 2.231 2.07 2.231 4.085v1.552c0 2.941-1.552 4.52-4.547 4.52h-4.71v-19.06h4.52c3.1 0 4.438 1.443 4.438 4.385m-5.965 3.375h1.174c1.115 0 1.8-.49 1.8-2.014v-1.062c0-1.362-.464-1.961-1.526-1.961h-1.444Zm0 8.578h1.717c1.009 0 1.552-.465 1.552-1.88v-1.661c0-1.77-.573-2.313-1.934-2.313h-1.331Z" data-name="Trazado 200"/><path d="M409.233 182.942c0 1.362.6 1.852 1.552 1.852s1.552-.49 1.552-1.852v-14.7h2.829v14.513c0 3.05-1.522 4.793-4.464 4.793s-4.465-1.743-4.465-4.793v-14.516h3Z" data-name="Trazado 201"/><path d="M429.766 176.268v2.723h-4.112v5.583h5.174v2.722h-8.169v-19.06h8.169v2.723h-5.174v5.309Z" data-name="Trazado 202"/><path d="M441.114 168.239v16.338h4.929v2.722h-7.921v-19.06Z" data-name="Trazado 203"/><path d="m459.466 187.299-.515-3.458h-3.676l-.518 3.458h-2.751l3.05-19.06h4.385l3.05 19.06Zm-.925-6.045-1.444-9.638-1.44 9.638Z" data-name="Trazado 204"/><path d="M116.003 45.327c5.569-10.8 10.206-18.459 13.639-23.024.373-1.658 1.171-2.562 2.444-2.712a5.9 5.9 0 0 1 3.344.837 8.05 8.05 0 0 1 2.065 2.806 36.8 36.8 0 0 1 3.518 11.911c.689 5.889.809 14.54.462 25.92q-.369 9.767-.142 16.123a77 77 0 0 0 1.495 12.6 14.6 14.6 0 0 0 .581 2.588 23 23 0 0 0 1.057 2.389c.482 1.163.869 2.126 1.163 2.9q1.234 2.757 3.257 7.383c1.235 2.7 2.052 4.426 2.428 5.19a22.4 22.4 0 0 0 2.285 3.769 14.8 14.8 0 0 0 2.916 2.789c2.821 2.329 4.441 3.979 4.916 4.932.368.779.246 1.9-.337 3.376a3.29 3.29 0 0 1-1.336 2.418 10.4 10.4 0 0 1-3.155.956 6.4 6.4 0 0 1-1.117.276q-2.898.633-3.8.748a4.2 4.2 0 0 1-2.14-.216 7.3 7.3 0 0 1-2.043-1.721 11.4 11.4 0 0 1-3-2.383 18.6 18.6 0 0 1-2.2-3.535 30 30 0 0 0-2.144-3.7 83 83 0 0 1-2.817-4.974 40.8 40.8 0 0 1-3.437-9.543 139 139 0 0 1-2.139-14.262 37.3 37.3 0 0 0-1.054-6.271 18.2 18.2 0 0 1-.7-4.176c.147-1.238.291-2.476.441-3.711.325-2.782.52-4.857.6-6.247a35 35 0 0 0-.1-4.622 57 57 0 0 0-1.034-6.42q-.8-3.859-2.466-10.209c-3.455 5.7-6.358 10.488-8.76 14.311s-4.336 6.853-5.795 9.048a41 41 0 0 1-3.826 5.057 38 38 0 0 1-3.178 3.068q-3.078 3.377-7.84 9.019a58.7 58.7 0 0 1-6.88 7.638 15.3 15.3 0 0 1-6.125 2.809c-.5.087-1 .179-1.493.258q-4.3 1.066-6.049 1.388a17 17 0 0 1-3.6.351 7.5 7.5 0 0 1-2.741-.73c-2.978-1.508-5.833-3.12-8.58-4.859s-4.484-3.2-5.2-4.4a12.5 12.5 0 0 0-3.282-3.3c-1.58-1.175-2.649-1.726-3.2-1.611-.276.061-.393.186-.372.387-.334 3.482-.8 7.3-1.366 11.455s-1.222 9-1.958 14.545-1.256 9.964-1.62 13.263a95 95 0 0 0-.793 12.009c.035 3.107.091 5.753.148 7.92a10.8 10.8 0 0 1 .053 2.955 3.39 3.39 0 0 1-2.374 2.568 9 9 0 0 1-2.185.024 10.4 10.4 0 0 0-2.575.13c-1.024.239-1.973-.32-2.824-1.687a9.1 9.1 0 0 1-1.154-3.009 103 103 0 0 1 .111-12.614c.3-4.289.816-9.845 1.588-16.679.708-6.911 1.323-12.629 1.779-17.146a105 105 0 0 0 .523-13.269 28.7 28.7 0 0 0 .395-8.318q-.166-3.535-.126-5.73a427 427 0 0 1-4.4-5.051 41 41 0 0 1-3.607-4.747c-.924-1.458-1.276-2.429-1.031-2.888a7 7 0 0 0 .673-2.951c.066-1.571.427-2.525 1.054-2.872a6.6 6.6 0 0 0 1.181-.4 5.6 5.6 0 0 1 1.177-.406 7.3 7.3 0 0 1 1.357-.125 6.4 6.4 0 0 0 1.206-.107 8.1 8.1 0 0 0-.333-3.334 1.7 1.7 0 0 0-.152-.744c-.427-1.356-.95-3.061-1.586-5.1a37.5 37.5 0 0 1-1.739-6.078 19.3 19.3 0 0 1 .22-6.333 4.58 4.58 0 0 1 .746-3.336 6.64 6.64 0 0 1 2.87-1.742c1.589-.738 2.549-1.545 2.853-2.425a11.7 11.7 0 0 1 3.942 4.019c.4 1.163 1.035 3.122 1.937 5.893s2.044 6.413 3.431 10.932 2.5 8.159 3.314 10.887 1.56 5.171 2.227 7.305c1.311 1.5 3.2 3.659 5.61 6.489a125 125 0 0 0 10.383 11.345 23.4 23.4 0 0 0 8.881 4.876c.243.067.931.3 2.072.715a9.8 9.8 0 0 0 4.3.958c.114-.071.21-.142.323-.213.183-.026.318-.047.417-.069 1.318-1.193 2.635-2.394 3.967-3.588 3.078-2.87 5.17-4.807 6.244-5.841a16.6 16.6 0 0 0 2.571-3.093 19.3 19.3 0 0 1 3.322-4.034 8.6 8.6 0 0 0 1.588-1.768c3.169-4.651 7.368-12.407 12.827-23.208" data-name="Trazado 205"/><path d="M280.973 106.392a172.5 172.5 0 0 1 16.082-22.074 60.4 60.4 0 0 1 14.353-12.15 3.53 3.53 0 0 1 2.093-.344 11.58 11.58 0 0 1 6.369 2.412 2.3 2.3 0 0 1 .765 1.036 4.86 4.86 0 0 1-.4 2.849 6.2 6.2 0 0 0-.374 1.694c-.007.523-.016 1.051-.016 1.564.038 4.107.2 7.728.5 10.893a46.8 46.8 0 0 0 2.308 10.26 65 65 0 0 0 2.532 6.4 29.3 29.3 0 0 0 4.325 7.077 6.99 6.99 0 0 0 4.9 2.415 13 13 0 0 0 5.114-.978 6.2 6.2 0 0 1 2.25-.433 1.54 1.54 0 0 1 1.54 1.1 4.06 4.06 0 0 1-.75 3.094q-1.118 1.933-2.368 2.131a8.2 8.2 0 0 0-4.327 1.744 4.26 4.26 0 0 1-2.485 1.29c-.268-.022-.495-.034-.675-.046-.21.046-.406.073-.612.114-3.937-.217-7.83-2.093-11.76-5.647a28.7 28.7 0 0 1-8.185-11.984 94 94 0 0 1-3.061-12.332 99 99 0 0 1-1.075-12.409q-4.452 4.857-7.094 7.938a349 349 0 0 0-4.642 5.462 57 57 0 0 0-3.544 4.644 182 182 0 0 0-3.351 5.1q-2.6 3.963-3.8 6.182a36 36 0 0 0-1.833 3.764 8.4 8.4 0 0 1-.973 1.713 8.01 8.01 0 0 1-6.613 3.397 43 43 0 0 0-1.348 0 9 9 0 0 0-1.121-.145 2.01 2.01 0 0 1-1.909-1.151 5.5 5.5 0 0 1 .11-2.862c.012-.1.025-.191.031-.288q.573-10.47 1.663-24.083c.7-7.447.93-11.556.63-12.323a.38.38 0 0 0-.387-.283c-.187-.005-.487.288-.912.86q-3.257 4.859-6.547 9.462c-6.064 8.916-9.7 14.558-11.165 16.82a415 415 0 0 0-3.88 6.241 31.5 31.5 0 0 0-1.955 3.561c-.1.194-.335.734-.708 1.591-1.369 3.3-2.457 5.86-3.285 7.707a10.4 10.4 0 0 1-2.125 3.51 4.93 4.93 0 0 1-3.226.956 11.3 11.3 0 0 1-3.447-.387c-1.072-.3-1.708-.721-1.946-1.292-.017-.048-.039-.1-.054-.144 0-.093.012-.192.009-.287a29 29 0 0 0 .777-4.123c.317-2.174.717-5.135 1.242-8.9.641-4.325 1.2-7.994 1.646-10.973s.861-5.354 1.248-7.09c1.317-5.881 2.363-11.348 3.1-16.393a86 86 0 0 0 1.15-10.59q.147-2-1.575-6.138a18.8 18.8 0 0 0-1.587-3.128 34.4 34.4 0 0 1-3.666-5.936c-.573-1.321-.541-2.046.078-2.159a10.9 10.9 0 0 0 2.643-2.22 6.25 6.25 0 0 1 1.982-1.763 4.95 4.95 0 0 0 2.216-1.921c1.153-1.371 2.244-2.062 3.3-2.081a4.7 4.7 0 0 1 1.4.272c1.977.82 3.135 1.672 3.495 2.529a11.7 11.7 0 0 1 .464 3.587q.437 7.3.481 12.258c.026 3.3-.057 6.033-.257 8.184s-.421 3.9-.667 5.25-.65 3.031-1.219 5.048c0 .093-.019.189-.025.284q-1.344 7.133-2.628 14.266-.907 5.194-1.8 10.387 12.07-19.976 25.168-39.581c2.052-3.335 3.768-5.005 5.077-4.992.937 0 2.217.882 3.806 2.613a17.6 17.6 0 0 1 3.169 4.619 9.3 9.3 0 0 1 .553 3.516 30 30 0 0 1-.653 5.077 186 186 0 0 0-2.547 26.758" data-name="Trazado 206"/><path d="M348.753 97.268c.492-2.3.989-4.855 1.458-7.678s.89-5.67 1.27-8.55c.361-2.872.728-5.781 1.1-8.7a4.04 4.04 0 0 1-2.112-1.648 9.9 9.9 0 0 1-1.309-2.6 3.47 3.47 0 0 1 .741-2.233q.889-1.366 2.357-3.256a31 31 0 0 0 2.731-3.646c.593-1.388 1.831-2.005 3.734-1.854l.76.207c.19.02.373.029.566.044a8.6 8.6 0 0 1 2.869 1.163 4.47 4.47 0 0 1 1.6 2.489 9.4 9.4 0 0 1 .393 2.608c.218 3.445.342 5.833.4 7.174a31 31 0 0 1-.119 3.7 34 34 0 0 1-.594 3.661c-.29 1.307-.822 3.269-1.573 5.87-.784 2.211-2.054 6.542-3.779 12.979q-2.645 9.915-4.421 15.855a65.5 65.5 0 0 1-3.822 10.074 11.2 11.2 0 0 1-3.073 3.5c-1.5 1.224-2.8 1.809-3.856 1.739a1.46 1.46 0 0 1-.9-.343 2.1 2.1 0 0 1-.766-.771 6 6 0 0 1 .35-2.256 6.6 6.6 0 0 0 .265-1.27c.257-1.414.57-2.9.928-4.447s.9-4.529 1.656-8.956c.355-1.684.681-3.287.977-4.794s.489-2.487.614-2.955a22.8 22.8 0 0 0 1.558-5.1m21.98-71.706a17.6 17.6 0 0 1 .566 2.764 8.72 8.72 0 0 1-.965 6.048 20.1 20.1 0 0 1-4.328 4.759c-.726 1-1.283 1.477-1.664 1.445s-.882-.415-1.486-1.134a23.1 23.1 0 0 1-4.314-7.778 13.1 13.1 0 0 1-.853-5.352 5.17 5.17 0 0 1 2.489-3.374 10 10 0 0 1 2.7-1.632 6.1 6.1 0 0 1 2.79-.476 4.15 4.15 0 0 1 2.1.753 6.59 6.59 0 0 1 2.967 3.977" data-name="Trazado 207"/><path d="M399.995 98.776c-1.578.054-3.683.209-6.282.5-.528.036-1.489.115-2.88.26q-6.07.765-9.393 1.092a29.7 29.7 0 0 1-5.119.139 5.13 5.13 0 0 1-3-1.141c-.905-.656-1.425-1.169-1.527-1.563-.054-.194.1-.572.484-1.1a7.5 7.5 0 0 0 .7-2.222 6.8 6.8 0 0 1 4.809-4.331c2.487-.766 6.735-.894 12.731-.341 3.251.345 5.663.549 7.25.593s4.282-.017 8.127-.116c2.951-.023 4.709-.036 5.245-.06a5 5 0 0 0 1.07-.015.24.24 0 0 1 .243-.1c.191.02.351.275.469.774.028.09.084.337.192.727.164.97.334 1.814.5 2.5.313 1.176.065 1.815-.719 1.9a2.03 2.03 0 0 0-2.029 1.458 2.1 2.1 0 0 1-1.127 1.352 7.6 7.6 0 0 1-3.466.077 41 41 0 0 0-6.27-.387" data-name="Trazado 208"/><path d="M552.278 37.302a34 34 0 0 1-3.33-.619c-7.786-1.869-19.208-5.225-34.365-9.774-15.423-4.706-26.984-7.577-34.58-8.963-1.314-.237-2.9-.457-4.771-.669-2.239-.28-3.885-.5-4.95-.687-2.569-.193-5.435-.5-8.608-.9s-7.259-1.015-12.262-1.792a17.6 17.6 0 0 0-3.758-.315 5.9 5.9 0 0 0-2.166.686 6.6 6.6 0 0 1-2.116.5 16.6 16.6 0 0 1-3.479-.245 84 84 0 0 0-11.39-.241 26.3 26.3 0 0 0-9.121 1.979c-.606.288-1 1.45-1.161 3.494a34 34 0 0 1-.718 4.189 8.35 8.35 0 0 1-1.916 3.488q-.133.171-.261.329a17 17 0 0 1-2.929 3.467 4.07 4.07 0 0 1-3.234.873c-1.882-.234-4-1.452-6.4-3.673a6.04 6.04 0 0 1-2.338-3q-.6-2.243 1.333-7.126a17.9 17.9 0 0 0 1.642-4.72 8.6 8.6 0 0 1 1.4-3.122 90 90 0 0 1 11.94-7.1 31.7 31.7 0 0 1 11.174-3.1c3.829.041 8.333-.008 13.516-.1 3.21-.131 5.892-.181 8.031-.154a74 74 0 0 1 7.689.561c8.569 1 16.1 2.111 22.588 3.264q9.011 1.6 17.2 3.655 8.2 2.034 17.934 5.142 6.233 2.023 13.429 4.145a1651 1651 0 0 1 16.773 5.087c5.555 1.669 9.316 2.858 11.313 3.522a27 27 0 0 1 4.11 1.658c1.5.862 2.438 2.624 2.819 5.308.3 2.167-.305 3.606-1.792 4.347a10 10 0 0 0-1.765.854 2.85 2.85 0 0 1-2.128.576c-.714-.179-1.826-.449-3.357-.824m-109.8 88.229q-.462 6.132-.978 10.159a22.9 22.9 0 0 1-1.693 6.57 4.82 4.82 0 0 1-2.115 2.506 12.7 12.7 0 0 1-3.721.619 18.7 18.7 0 0 0-3.337.238 19.3 19.3 0 0 1-5 .37 1.82 1.82 0 0 1-1.7-1.51 8.3 8.3 0 0 1 .134-2.9q1.291-11.293 2.375-17.434a49.4 49.4 0 0 1 3.081-10.773c1.618-4.617 3.091-8.6 4.385-11.938s2.635-6.777 4.013-10.338c2.021-5.037 3.768-9.465 5.227-13.251s3.11-8.274 4.96-13.459a120.5 120.5 0 0 0 5.53-16.53 156 156 0 0 0 2.991-17.13c.258-2.88.958-4.74 2.078-5.591s3.05-1.235 5.8-1.136c2.842.48 4.777 1.211 5.831 2.181 1.063.987 1.867 2.795 2.421 5.447a39.2 39.2 0 0 1-1.921 16.48c-1.875 5.876-5.2 14.241-9.865 25.141-.925 2.153-1.841 4.317-2.756 6.475q-2.589 6.5-5.415 13.165-1.729 4.094-2.547 6.426a39 39 0 0 0-1.335 5.171 23.2 23.2 0 0 1-1.344 5.073 39 39 0 0 1-1.947 3.7 26 26 0 0 0-1.89 3.9 22.4 22.4 0 0 0-1 5.856 40 40 0 0 1-.271 2.511" data-name="Trazado 209"/><path d="M239.661 99.626a9.3 9.3 0 0 0-2.221 1.961q.013.21.03.432a17.1 17.1 0 0 1-3.028 4v.332a8.7 8.7 0 0 1-1.407.9c-.288.115-.732.344-1.325.626a4.3 4.3 0 0 1-1.541.446c-.167.236-.351.469-.521.7a4.3 4.3 0 0 0-3.057 1.6c-.209.045-.407.1-.6.15q-1.759 1.889-2.391 1.914c-5.668.354-8.859.545-9.627.461-.082-.141-.182-.28-.272-.419a35 35 0 0 1-4.194-2.242c-.19-.014-.379-.024-.569-.049-.548-.363-1.1-.727-1.648-1.084-.117-.179-.218-.356-.326-.532-.431-.335-1.334-2.271-2.738-5.785-.129-.133-.269-.272-.4-.412-.717-1.417-1.432-2.093-2.173-2.027a478 478 0 0 0-3.146 4.232c-.067.444-.153.9-.227 1.347-.093.05-.186.1-.276.138a43 43 0 0 1-3.407 6.966 2.07 2.07 0 0 0-.961 2.259c-.167.12-.34.258-.5.378-.324.643-.587 1.121-.748 1.443-.2.047-.389.113-.591.167.03.153.048.3.071.446q-.958.353-.981 1.913c-.1.015-.206.028-.3.035a5.5 5.5 0 0 1-2.1 4.192c.012.114.026.221.029.328a21 21 0 0 1-3.505 1.581c-.486 1.111-1.565 1.745-3.268 1.894a8.6 8.6 0 0 1-4.658-.8l-.9.012a27 27 0 0 1-2.6-1.087 7.5 7.5 0 0 1-2.409-.418v-.226l-1.211-.939a8.3 8.3 0 0 0-1.555-2.134c-.088-.032-.167-.047-.246-.082a24 24 0 0 0-1.32-2.217 18.6 18.6 0 0 1-1.318-2.223c-4.28-9.005-1.863-18.738-1.07-27.928.148-1.912 1.751-10.845 3.634-11.792.1-.045.184-.1.283-.145.839-.417 3.452-6.144 4.09-7.153 1.815-2.844 3.169-6.144 5.65-8.554 4.637-4.509 9.645-8.461 16.749-8.818.15.07.294.123.435.183a7 7 0 0 1 2.033.316 4.54 4.54 0 0 0 2.087.213c1.328.861 2.362 1.48 3.075 1.854q.316.04.633.067a12.4 12.4 0 0 0 4.9 4.408 4 4 0 0 1 .247.327 3.64 3.64 0 0 1 2.228 1.388 3.07 3.07 0 0 1 1.562 2.459c.039.878.062 1.768.1 2.666-.1.149-.194.308-.291.475a25.7 25.7 0 0 0-.064 5.553c-.579.038-1.128.084-1.713.116a.8.8 0 0 1-.159-.094c-2.345-.178-3.282-.3-2.832-.329-1.477-.782-2.281-1.205-2.394-1.283-1.119-2.571-1.656-3.785-1.588-3.642.151-.005.3-.021.446-.037 0-.4-.012-.82-.016-1.223a1.053 1.053 0 0 0 .131-1.459c.092-.338.2-.693.308-1.031a2.2 2.2 0 0 1 0-1.451c-.1-.251-.2-.5-.316-.75-.938-.148-4.6.586-10.9 2.308a1.355 1.355 0 0 1-1.145 1.018 2.14 2.14 0 0 1-1.222.79c-.065.233-.122.463-.172.7q-2.31 1.908-3.378 1.928c-.079.369-.471.678-1.168.9-.135.251-.27.5-.4.725a7.2 7.2 0 0 0-2.315 1.827 14 14 0 0 1-1.21 2.4q-.175.019-.341.038c-.009.259-.009.527-.017.779-.212.065-.413.126-.625.2-.142.207-.3.41-.432.624-.213.057-.431.11-.643.177a20 20 0 0 0-2.1 3.287 18 18 0 0 1-.853.228c.092.028.184.045.269.078q.151.6.31 1.2a7 7 0 0 0-.409.171c.021.11.03.226.042.332-.131.129-.277.26-.411.389-.174 1.369-.528 2.171-1.056 2.394a23 23 0 0 1-.59 2.331 1.5 1.5 0 0 1-.187.134 8 8 0 0 1-.54 2.429c.048.189.1.366.135.556-.138.314-.267.635-.407.953.1.214.208.416.3.625a62 62 0 0 1-.686 3.6 6 6 0 0 0-.4.406 4.8 4.8 0 0 1 .137 2.21 5.2 5.2 0 0 0 .25 2.451 32.6 32.6 0 0 0 2.825 16.622 3.3 3.3 0 0 1 .215 1.213 3.1 3.1 0 0 0 .2 1.214c1.224 2.751 2.675 4.022 4.36 3.782.289-.18.577-.375.873-.552a7.1 7.1 0 0 0 2.219-1.774c.2-.066.394-.124.6-.186a4 4 0 0 1-.183-.429 11.6 11.6 0 0 0 2.257-3.543c.205-.055.389-.124.589-.182.145-.285.281-.565.419-.841a1.92 1.92 0 0 1 .633-2.208c4.059-3.693 6.868-12.658 8.989-18.333.341-.96 2.16-11.591 2.374-11.66.125-.044.246-.1.381-.146a28 28 0 0 1-.061-1c.527-.433.517-1.117-.053-2.126.175-.42.364-.845.531-1.268.14-.054.284-.1.421-.145a1.35 1.35 0 0 1 1.416-1.689c.454-.042 2.546.555 6.231 1.83 2.333 2.571 3.411 3.666 3.272 3.308.283.738-.127 1.673-1.193 2.883a1.88 1.88 0 0 1-.2 1.563 31.4 31.4 0 0 1-.224 7.6c-.838 2.15-.222 4.471 1.81 7.018 1.414 8.055 6.166 8.174 12.054 4.734 3.507-2.077 13.89-6.943 14.628-11.018a5.4 5.4 0 0 0 .135-1.876 2.53 2.53 0 0 1 2.59-.976c.3.366.616.714.927 1.08.337 1.236-.637 3.373-2.869 6.407" data-name="Trazado 210"/></g></svg>