<svg xmlns="http://www.w3.org/2000/svg" width="291.607" height="26.151"><g fill="#b3955a" data-name="Grupo 238"><path d="m278.531 26.151-13.077-13.077L278.531 0l13.076 13.074Zm-10.186-13.077 10.186 10.186 10.185-10.186L278.531 2.89Z" data-name="Trazado 272"/><path d="m234.288 26.151-13.077-13.077L234.288 0l13.076 13.074Zm-10.186-13.077 10.186 10.186 10.185-10.186L234.288 2.89Z" data-name="Trazado 273"/><path d="m190.045 26.151-13.077-13.077L190.045 0l13.076 13.074Zm-10.186-13.077 10.186 10.186 10.185-10.186L190.045 2.89Z" data-name="Trazado 274"/><path d="M145.807 26.151 132.73 13.074 145.807 0l13.076 13.074Zm-10.186-13.077 10.186 10.186 10.185-10.186L145.807 2.89Z" data-name="Trazado 275"/><path d="M101.56 26.151 88.483 13.074 101.56 0l13.076 13.074ZM91.374 13.074 101.56 23.26l10.185-10.186L101.56 2.89Z" data-name="Trazado 276"/><path d="M57.317 26.151 44.242 13.074 57.317 0l13.076 13.074ZM47.133 13.074 57.317 23.26l10.185-10.186L57.317 2.89Z" data-name="Trazado 277"/><path d="M13.075 26.151 0 13.074 13.075 0l13.076 13.074ZM2.891 13.074 13.075 23.26 23.26 13.074 13.075 2.89Z" data-name="Trazado 278"/></g></svg>