<svg xmlns="http://www.w3.org/2000/svg" width="538.255" height="15.116"><g fill="#b3955a" data-name="Grupo 235"><path d="M255.421 7.559a15.9 15.9 0 0 1 7.554 7.557 17.47 17.47 0 0 1 7.559-7.557A20.3 20.3 0 0 1 262.975 0a18.17 18.17 0 0 1-7.554 7.559" data-name="Trazado 177"/><path d="M238.456 2.584A59.2 59.2 0 0 1 215.19 6.83v-.161H0v1.78h215.19V8.29a59.3 59.3 0 0 1 23.266 4.242c9.168-4.091 10.028-3.845 14.826-4.974-4.8-1.129-5.658-.88-14.826-4.974" data-name="Trazado 178"/><path d="M311.183 6.669v.155a59.4 59.4 0 0 1-23.69-4.24c-9.172 4.094-10.028 3.846-14.824 4.976 4.8 1.127 5.652.881 14.824 4.972a59.5 59.5 0 0 1 23.69-4.236v.153h227.072v-1.78Zm-.2.9.2-.306v.6Z" data-name="Trazado 179"/></g></svg>